<?xml version="1.0" encoding="iso-8859-1"?>
<!-- Generator: Adobe Illustrator 18.0.0, SVG Export Plug-In . SVG Version: 6.00 Build 0)  -->
<!DOCTYPE svg PUBLIC "-//W3C//DTD SVG 1.1//EN" "http://www.w3.org/Graphics/SVG/1.1/DTD/svg11.dtd">
<svg version="1.1" id="Capa_1" xmlns="http://www.w3.org/2000/svg" xmlns:xlink="http://www.w3.org/1999/xlink" x="0px" y="0px"
	 viewBox="0 0 482.928 482.928" style="enable-background:new 0 0 482.928 482.928;" xml:space="preserve">
<g>
	<path d="M453.304,0h-300.59c-5.522,0-10,4.477-10,10v126.93H29.624c-5.522,0-10,4.477-10,10v189.08c0,5.523,4.478,10,10,10H81.17
		v126.918c0,5.523,4.478,10,10,10h300.587c5.522,0,10-4.477,10-10V283.849c0-5.523-4.478-10-10-10h-51.543v-64.77h113.09
		c5.522,0,10-4.477,10-10V10C463.304,4.477,458.826,0,453.304,0z M190.67,20l-13.826,13.826c-0.002,0.002-0.004,0.004-0.006,0.006
		l-14.124,14.124V20H190.67z M67.282,156.93L53.46,170.752c-0.005,0.005-0.01,0.01-0.014,0.014l-13.822,13.822V156.93H67.282z
		 M101.17,321.507v-27.658h27.658L101.17,321.507z M381.757,462.928H101.17V349.792l11.027-11.027
		c0.732,4.802,4.867,8.484,9.873,8.484c5.522,0,10-4.477,10-10v-12.499h12.498c5.522,0,10-4.477,10-10
		c0-5.006-3.683-9.14-8.483-9.873l11.027-11.027h224.645V462.928z M91.17,273.849c-5.522,0-10,4.477-10,10v42.161H39.624V212.872
		l11.026-11.027c0.733,4.801,4.868,8.483,9.873,8.483c5.522,0,10-4.477,10-10V187.83h12.499c5.522,0,10-4.477,10-10
		c0-5.006-3.683-9.14-8.483-9.873l11.027-11.027h224.648v116.919H91.17z M443.304,189.08h-103.09v-32.15h16.792
		c5.522,0,10-4.477,10-10s-4.478-10-10-10H162.714V76.241l11.325-11.325c0.733,4.801,4.868,8.483,9.873,8.483
		c5.522,0,10-4.477,10-10V50.9h12.499c5.522,0,10-4.477,10-10c0-5.006-3.682-9.14-8.483-9.873L218.955,20h224.349V189.08z"/>
	<path d="M249.012,72.15h107.994c5.522,0,10-4.477,10-10s-4.478-10-10-10H249.012c-5.522,0-10,4.477-10,10
		S243.489,72.15,249.012,72.15z"/>
	<path d="M357.006,94.54H249.012c-5.522,0-10,4.477-10,10s4.478,10,10,10h107.994c5.522,0,10-4.477,10-10
		S362.528,94.54,357.006,94.54z"/>
	<path d="M233.916,189.08H125.922c-5.522,0-10,4.477-10,10s4.478,10,10,10h107.994c5.522,0,10-4.477,10-10
		S239.439,189.08,233.916,189.08z"/>
	<path d="M233.916,231.47H125.922c-5.522,0-10,4.477-10,10s4.478,10,10,10h107.994c5.522,0,10-4.477,10-10
		S239.439,231.47,233.916,231.47z"/>
	<path d="M187.466,345.999h107.995c5.522,0,10-4.477,10-10s-4.478-10-10-10H187.466c-5.522,0-10,4.477-10,10
		S181.943,345.999,187.466,345.999z"/>
	<path d="M187.466,388.389h107.995c5.522,0,10-4.477,10-10s-4.478-10-10-10H187.466c-5.522,0-10,4.477-10,10
		S181.943,388.389,187.466,388.389z"/>
	<path d="M295.461,410.779H187.466c-5.522,0-10,4.477-10,10s4.478,10,10,10h107.995c5.522,0,10-4.477,10-10
		S300.984,410.779,295.461,410.779z"/>
</g>
<g>
</g>
<g>
</g>
<g>
</g>
<g>
</g>
<g>
</g>
<g>
</g>
<g>
</g>
<g>
</g>
<g>
</g>
<g>
</g>
<g>
</g>
<g>
</g>
<g>
</g>
<g>
</g>
<g>
</g>
</svg>
